<?xml version="1.0" encoding="utf-8" standalone="no"?>
<!DOCTYPE svg PUBLIC "-//W3C//DTD SVG 1.1//EN"
  "http://www.w3.org/Graphics/SVG/1.1/DTD/svg11.dtd">
<svg xmlns:xlink="http://www.w3.org/1999/xlink" width="460.8pt" height="103.104pt" viewBox="0 0 460.8 103.104" xmlns="http://www.w3.org/2000/svg" version="1.1">
 <metadata>
  <rdf:RDF xmlns:dc="http://purl.org/dc/elements/1.1/" xmlns:cc="http://creativecommons.org/ns#" xmlns:rdf="http://www.w3.org/1999/02/22-rdf-syntax-ns#">
   <cc:Work>
    <dc:type rdf:resource="http://purl.org/dc/dcmitype/StillImage"/>
    <dc:date>2025-10-22T17:27:25.423156</dc:date>
    <dc:format>image/svg+xml</dc:format>
    <dc:creator>
     <cc:Agent>
      <dc:title>Matplotlib v3.6.3, https://matplotlib.org/</dc:title>
     </cc:Agent>
    </dc:creator>
   </cc:Work>
  </rdf:RDF>
 </metadata>
 <defs>
  <style type="text/css">*{stroke-linejoin: round; stroke-linecap: butt}</style>
 </defs>
 <g id="figure_1">
  <g id="patch_1">
   <path d="M 0 103.104 
L 460.8 103.104 
L 460.8 0 
L 0 0 
L 0 103.104 
z
" style="fill: none; opacity: 0"/>
  </g>
  <g id="axes_1">
   <g id="text_1">
    <!-- $X^{(l+1)} = \sigma\!\left( D_v^{-1/2}\; H\; W\; D_e^{-1}\; H^{T}\; D_v^{-1/2}\; X^{(l)}\; \Theta \right)$ -->
    <g style="fill: #333333" transform="translate(13.92 58.482)">
     <text>
      <tspan style="font: oblique 22px 'DejaVu Sans'" x="0 89.218138 109.593143 171.793588 194.289566 221.995506 269.734525 303.781552 365.981996" y="-0.875">XσDHWDHDX</tspan>
      <tspan style="font: 15.4px 'DejaVu Sans'" x="16.613841 29.900853 45.804661 55.602611 128.076125 140.97964 150.777589 155.441066 240.478488 253.382003 322.264533 335.168049 344.965998 349.629475 382.595837 392.882556" y="-9.296875 -9.296875 -9.296875 -9.296875 -9.296875 -9.296875 -9.296875 -9.296875 -9.296875000000002 -9.296875000000002 -9.296875 -9.296875 -9.296875 -9.296875 -9.296875 -9.296875">(+1)−1/2−1−1/2()</tspan>
      <tspan style="font: oblique 15.4px 'DejaVu Sans'" x="22.621947 126.533573 238.935935 287.820046 320.721981 388.603943" y="-9.296875 5.140625 5.140625 -9.296875 5.140625 -9.296875">lveTvl</tspan>
      <tspan style="font: 22px 'DejaVu Sans'" x="66.498411 405.445234" y="-0.875">=Θ</tspan>
      <tspan style="font: 21.428406px 'STIXSizeOneSym'" x="99.589649 422.76164" y="1.921875">()</tspan>
     </text>
    </g>
   </g>
  </g>
 </g>
</svg>
